$MeshFormat
4.1 0 8
$EndMeshFormat
$PhysicalNames
6
0 1 "bc:west"
0 2 "bc:east"
1 4 "material:mms_material_1"
1 5 "material:mms_material_2"
1 6 "source:mms_source_1"
1 7 "source:mms_source_2"
$EndPhysicalNames
$Entities
3 2 0 0
1 -1 0 0 1 1 
2 0 0 0 0 
3 1 0 0 1 2 
1 -1.0000001 -1e-07 -1e-07 9.999999994736442e-08 1e-07 1e-07 2 4 6 2 1 -2 
2 -9.999999994736442e-08 -1e-07 -1e-07 1.0000001 1e-07 1e-07 2 5 7 2 2 -3 
$EndEntities
$Nodes
5 3 1 3
0 1 0 1
1
-1 0 0
0 2 0 1
2
0 0 0
0 3 0 1
3
1 0 0
1 1 0 0
1 2 0 0
$EndNodes
$Elements
4 4 1 4
0 1 15 1
1 1 
0 3 15 1
2 3 
1 1 1 1
3 1 2 
1 2 1 1
4 2 3 
$EndElements
