$MeshFormat
4.1 0 8
$EndMeshFormat
$PhysicalNames
4
0 2 "bc:west"
0 3 "bc:east"
1 4 "material:mms_material"
1 5 "source:mms_source"
$EndPhysicalNames
$Entities
2 1 0 0
1 -1 0 0 1 2 
2 1 0 0 1 3 
1 -1.0000001 -1e-07 -1e-07 1.0000001 1e-07 1e-07 2 4 5 2 2 -1 
$EndEntities
$Nodes
3 9 1 9
0 1 0 1
1
-1 0 0
0 2 0 1
2
1 0 0
1 1 0 7
3
4
5
6
7
8
9
0.75 0 0
0.5 0 0
0.25 0 0
0 0 0
-0.25 0 0
-0.5 0 0
-0.75 0 0
$EndNodes
$Elements
3 10 1 10
0 1 15 1
1 1 
0 2 15 1
2 2 
1 1 1 8
3 2 3 
4 3 4 
5 4 5 
6 5 6 
7 6 7 
8 7 8 
9 8 9 
10 9 1 
$EndElements
